Coordinates
version=1
nRows=5
nColumns=21
inDegrees=yes

Units are S.I. units (second, meters, Newtons, ...)
If the header above contains a line with 'inDegrees', this indicates whether rotational values are in degrees (yes) or radians (no).

endheader
time	sternoclavicular_r2	sternoclavicular_r3	unrotscap_r3	unrotscap_r2	acromioclavicular_r2	acromioclavicular_r3	acromioclavicular_r1	unrothum_r1	unrothum_r3	unrothum_r2	elv_angle	shoulder_elev	shoulder1_r2	shoulder_rot	elbow_flexion	pro_sup	deviation	flexion	wrist_hand_r1	wrist_hand_r3
      0.00000000	    -20.37578452	      8.63022064	     -8.63022064	     20.37578452	     -4.12568189	     33.34230980	     14.98713878	    -14.98713878	    -33.34230980	      4.12568189	     -3.37269671	     84.19726797	      3.37269671	    -27.97198993	      0.00000691	      0.00000000	     -0.00000000	     -0.00000000	      0.00000000	      0.00000000
      0.25000000	    -20.37578452	      8.63022064	     -8.63022064	     20.37578452	     -4.12568189	     33.34230980	     14.98713878	    -14.98713878	    -33.34230980	      4.12568189	     -3.37269671	     84.19726797	      3.37269671	    -27.97198993	      0.00000691	      0.00000000	     -0.00000000	      0.00000000	      0.00000000	      0.00000000
      0.50000000	    -20.37536326	      8.63004221	     -8.63004221	     20.37536326	     -4.12559659	     33.34162046	     14.98682893	    -14.98682893	    -33.34162046	      4.12559659	     -3.37084017	     84.19552723	      3.37084017	    -27.97014827	      0.00000779	      0.00000000	      0.00000000	      0.00000000	      0.00000000	      0.00000000
      0.75000000	    -20.37341805	      8.62921831	     -8.62921831	     20.37341805	     -4.12520273	     33.33843738	     14.98539816	    -14.98539816	    -33.33843738	      4.12520273	     -3.36227450	     84.18748919	      3.36227450	    -27.96160155	      0.00001187	      0.00000000	     -0.00000000	      0.00000000	      0.00000000	      0.00000000
      1.00000000	    -20.36778004	      8.62683032	     -8.62683032	     20.36778004	     -4.12406115	     33.32921151	     14.98125120	    -14.98125120	    -33.32921151	      4.12406115	     -3.33744787	     84.16419169	      3.33744787	    -27.93682483	      0.00002371	      0.00000000	     -0.00000000	      0.00000000	      0.00000000	      0.00000000
